# xmcd CD database file
#
# Track frame offsets:
#	150
#	4340
#	8089
#	15705
#	18819
#	22628
#	34824
#	37947
#	61268
#	67076
#	69513
#	75778
#	109320
#	112593
#	131356
#	134727
#	136182
#	145055
#	159732
#	163202
#	175901
#	179144
#	194802
#	197695
#	202343
#	205260
#	207141
#	219869
#	220843
#	221713
#	274932
#	280371
#	301897
#	307018
#	311588
#
# Disc length: 4272 seconds
#
# Revision: 0
# Processed by: cddbd v1.5.2PL0 Copyright (c) Steve Scherf et al.
# Submitted via: CDex 1.51
#
DISCID=0610ae23
DTITLE=Stefan Grossman - Advanced Fingerpicking Guitar Techniques - Blues
DYEAR=2000
DGENRE=Blues
TTITLE0=Musical Intro - Cow Cow Blues
TTITLE1=Intro
TTITLE2=Performance of Slow Blues in C
TTITLE3=Talk on Lesson
TTITLE4=Tuning
TTITLE5=Teaching of first section of Slow Blues in C
TTITLE6=Playing first section slowly of Slow Blues In C
TTITLE7=Teaching of second section of Slow Blues In C
TTITLE8=Playing second section slowly of Slow Blues In C
TTITLE9=Intro to Lemon's Jump
TTITLE10=Performance of Lemon's Jump
TTITLE11=Teaching of Lemon's Jump
TTITLE12=Playing slowly Lemon's Jump
TTITLE13=Teaching of variations of Lemon's Jump
TTITLE14=Variations played slowly of Lemon's Jump
TTITLE15=Intro to Yazoo Basin Boogie
TTITLE16=Performance of Yazoo Basin Boogie
TTITLE17=Tuning to dropped D and teaching of first section of Yazoo Basin Boogie
TTITLE18=Playing slowly first section of Yazoo Basin Boogie
TTITLE19=Teaching of second section of Yazoo Basin Boogie
TTITLE20=Playing slowly second section of Yazoo Basin Boogie
TTITLE21=Teaching of third section of Yazoo Basin Boogie
TTITLE22=Playing slowly third section of Yazoo Basin Boogie
TTITLE23=Teaching of fourth section of Yazoo Basin Boogie
TTITLE24=Playing slowly fourth section of Yazoo Basin Boogie
TTITLE25=Intro to Religious Trainfare Blues
TTITLE26=Performance of Religious Trainfare Blues
TTITLE27=Talk on Religious Trainfare Blues
TTITLE28=Retuning guitar to standard tuning
TTITLE29=Teaching of first section of Religious Trainfare Blues
TTITLE30=Playing slowly first section of Religious Trainfare Blues
TTITLE31=Teaching of second section of Religious Trainfare Blues
TTITLE32=Playing slowly second section of Religious Trainfare Blues
TTITLE33=Closing thoughts
TTITLE34=End tun Mississippi Blues
EXTD=YEAR: 2000
EXTT0=
EXTT1=
EXTT2=
EXTT3=
EXTT4=
EXTT5=
EXTT6=
EXTT7=
EXTT8=
EXTT9=
EXTT10=
EXTT11=
EXTT12=
EXTT13=
EXTT14=
EXTT15=
EXTT16=
EXTT17=
EXTT18=
EXTT19=
EXTT20=
EXTT21=
EXTT22=
EXTT23=
EXTT24=
EXTT25=
EXTT26=
EXTT27=
EXTT28=
EXTT29=
EXTT30=
EXTT31=
EXTT32=
EXTT33=
EXTT34=
PLAYORDER=
